<?xml version="1.0" standalone="yes"?>

<svg version="1.1" viewBox="0.0 0.0 960.0 720.0" fill="none" stroke="none" stroke-linecap="square" stroke-miterlimit="10" xmlns="http://www.w3.org/2000/svg" xmlns:xlink="http://www.w3.org/1999/xlink"><clipPath id="p.0"><path d="m0 0l960.0 0l0 720.0l-960.0 0l0 -720.0z" clip-rule="nonzero"></path></clipPath><g clip-path="url(#p.0)"><path fill="#000000" fill-opacity="0.0" d="m0 0l960.0 0l0 720.0l-960.0 0z" fill-rule="evenodd"></path><path fill="#000000" fill-opacity="0.0" d="m296.02905 582.14435l432.15747 -159.02362" fill-rule="evenodd"></path><path stroke="#e69138" stroke-width="24.0" stroke-linejoin="round" stroke-linecap="butt" d="m296.02905 582.14435l432.15747 -159.02362" fill-rule="evenodd"></path><path fill="#000000" fill-opacity="0.0" d="m364.58875 113.016846l368.34644 264.7874" fill-rule="evenodd"></path><path stroke="#6d9eeb" stroke-width="24.0" stroke-linejoin="round" stroke-linecap="butt" d="m364.58875 113.016846l368.34644 264.7874" fill-rule="evenodd"></path><path fill="#93c47d" d="m417.2791 283.05716l94.96063 1.9212646l-1.763794 86.519684l-94.96063 -1.9212646z" fill-rule="evenodd"></path><path stroke="#ffffff" stroke-width="8.0" stroke-linejoin="round" stroke-linecap="butt" d="m417.2791 283.05716l94.96063 1.9212646l-1.763794 86.519684l-94.96063 -1.9212646z" fill-rule="evenodd"></path><path fill="#6d9eeb" d="m349.8643 328.2984l94.96063 2.0472717l-1.7322693 86.39368l-94.96063 -2.0472412z" fill-rule="evenodd"></path><path stroke="#ffffff" stroke-width="8.0" stroke-linejoin="round" stroke-linecap="butt" d="m349.8643 328.2984l94.96063 2.0472717l-1.7322693 86.39368l-94.96063 -2.0472412z" fill-rule="evenodd"></path><path fill="#e69138" d="m429.15924 369.86536l94.96063 1.9212646l-1.763794 86.519684l-94.96063 -1.9212646z" fill-rule="evenodd"></path><path stroke="#ffffff" stroke-width="8.0" stroke-linejoin="round" stroke-linecap="butt" d="m429.15924 369.86536l94.96063 1.9212646l-1.763794 86.519684l-94.96063 -1.9212646z" fill-rule="evenodd"></path><path fill="#000000" fill-opacity="0.0" d="m249.16237 544.95325l78.866135 -414.2992" fill-rule="evenodd"></path><path stroke="#93c47d" stroke-width="24.0" stroke-linejoin="round" stroke-linecap="butt" d="m249.16237 544.95325l78.866135 -414.2992" fill-rule="evenodd"></path><path fill="#000000" fill-opacity="0.0" d="m307.22238 600.95386l431.18112 -157.7008" fill-rule="evenodd"></path><path stroke="#e69138" stroke-width="24.0" stroke-linejoin="round" stroke-linecap="butt" d="m307.22238 600.95386l431.18112 -157.7008" fill-rule="evenodd"></path><path fill="#000000" fill-opacity="0.0" d="m384.76416 102.76507l368.31494 264.78738" fill-rule="evenodd"></path><path stroke="#6d9eeb" stroke-width="24.0" stroke-linejoin="round" stroke-linecap="butt" d="m384.76416 102.76507l368.31494 264.78738" fill-rule="evenodd"></path><path fill="#93c47d" d="m765.6035 334.58456l0 0c35.128784 -13.950623 75.33154 3.0696106 89.79529 38.015747l0 0c6.9457397 16.781738 6.9056396 35.537415 -0.111450195 52.14102c-7.01709 16.603638 -20.436401 29.695068 -37.305847 36.39441l0 0c-35.128784 13.950623 -75.33154 -3.0696106 -89.79529 -38.015747l0 0c-14.463806 -34.946136 2.2885132 -74.58481 37.417297 -88.53543z" fill-rule="evenodd"></path><path stroke="#ffffff" stroke-width="12.0" stroke-linejoin="round" stroke-linecap="butt" d="m765.6035 334.58456l0 0c35.128784 -13.950623 75.33154 3.0696106 89.79529 38.015747l0 0c6.9457397 16.781738 6.9056396 35.537415 -0.111450195 52.14102c-7.01709 16.603638 -20.436401 29.695068 -37.305847 36.39441l0 0c-35.128784 13.950623 -75.33154 -3.0696106 -89.79529 -38.015747l0 0c-14.463806 -34.946136 2.2885132 -74.58481 37.417297 -88.53543z" fill-rule="evenodd"></path><path fill="#000000" fill-opacity="0.0" d="m263.96658 559.70856l79.055115 -415.2441" fill-rule="evenodd"></path><path stroke="#93c47d" stroke-width="24.0" stroke-linejoin="round" stroke-linecap="butt" d="m263.96658 559.70856l79.055115 -415.2441" fill-rule="evenodd"></path><path fill="#6d9eeb" d="m209.21014 559.29395l0 0c30.023422 -17.386047 68.893555 -7.1555786 86.81891 22.850403l0 0c8.608032 14.409424 11.136108 31.545288 7.028015 47.638c-4.1080627 16.092712 -14.515778 29.823914 -28.933533 38.173035l0 0c-30.023422 17.386108 -68.89357 7.1556396 -86.81889 -22.850403l0 0c-17.925339 -30.005981 -8.117905 -68.42493 21.905502 -85.811035z" fill-rule="evenodd"></path><path stroke="#ffffff" stroke-width="12.0" stroke-linejoin="round" stroke-linecap="butt" d="m209.21014 559.29395l0 0c30.023422 -17.386047 68.893555 -7.1555786 86.81891 22.850403l0 0c8.608032 14.409424 11.136108 31.545288 7.028015 47.638c-4.1080627 16.092712 -14.515778 29.823914 -28.933533 38.173035l0 0c-30.023422 17.386108 -68.89357 7.1556396 -86.81889 -22.850403l0 0c-17.925339 -30.005981 -8.117905 -68.42493 21.905502 -85.811035z" fill-rule="evenodd"></path><path fill="#e69138" d="m269.06787 71.72492l0 0c2.8179626 -33.754597 33.784332 -58.516422 69.165375 -55.307083l0 0c16.99054 1.5411797 32.74765 9.4584465 43.8049 22.010094c11.0572815 12.551647 16.508942 28.70951 15.155701 44.919037l0 0c-2.8179321 33.7546 -33.784332 58.516434 -69.165344 55.307083l0 0c-35.381012 -3.2093353 -61.778595 -33.17453 -58.960632 -66.92913z" fill-rule="evenodd"></path><path stroke="#ffffff" stroke-width="12.0" stroke-linejoin="round" stroke-linecap="butt" d="m269.06787 71.72492l0 0c2.8179626 -33.754597 33.784332 -58.516422 69.165375 -55.307083l0 0c16.99054 1.5411797 32.74765 9.4584465 43.8049 22.010094c11.0572815 12.551647 16.508942 28.70951 15.155701 44.919037l0 0c-2.8179321 33.7546 -33.784332 58.516434 -69.165344 55.307083l0 0c-35.381012 -3.2093353 -61.778595 -33.17453 -58.960632 -66.92913z" fill-rule="evenodd"></path></g></svg>

