<?xml version="1.0" encoding="UTF-8" standalone="no"?>
<!-- Created with Inkscape (http://www.inkscape.org/) -->

<svg
   xmlns:dc="http://purl.org/dc/elements/1.1/"
   xmlns:cc="http://creativecommons.org/ns#"
   xmlns:rdf="http://www.w3.org/1999/02/22-rdf-syntax-ns#"
   xmlns:svg="http://www.w3.org/2000/svg"
   xmlns="http://www.w3.org/2000/svg"
   xmlns:sodipodi="http://sodipodi.sourceforge.net/DTD/sodipodi-0.dtd"
   xmlns:inkscape="http://www.inkscape.org/namespaces/inkscape"
   id="svg2"
   sodipodi:docname="OPP-hex-emd.svg"
   viewBox="0 0 182.42194 208.98762"
   version="1.1"
   inkscape:version="0.91 r13725"
   width="5.1483526cm"
   height="5.8980956cm"
   inkscape:export-filename="/Users/adamsparks/Development/GSODR/man/figures/GSODR-hex.png"
   inkscape:export-xdpi="144.5"
   inkscape:export-ydpi="144.5">
  <title
     id="title6318">OpenPlantPathology</title>
  <defs
     id="defs4">
    <style
       id="style22186">.cls-1{fill:none;}.cls-2{fill:#ba6f38;}.cls-3{clip-path:url(#clip-path);}.cls-4{fill:#ed7d15;}.cls-5{opacity:0.25;fill:url(#linear-gradient);}.cls-6{fill:#ac5d12;}.cls-7{clip-path:url(#clip-path-2);}.cls-8{fill:#36a85d;}.cls-9{fill:#e6b35a;}.cls-10{fill:#fff;}.cls-11{opacity:0.94;}</style>
  </defs>
  <sodipodi:namedview
     id="base"
     bordercolor="#666666"
     inkscape:pageshadow="2"
     inkscape:window-y="1"
     pagecolor="#ffffff"
     inkscape:window-height="855"
     inkscape:window-maximized="1"
     inkscape:zoom="2.8284272"
     inkscape:window-x="42"
     showgrid="false"
     borderopacity="1.0"
     inkscape:current-layer="layer1"
     inkscape:cx="67.915004"
     inkscape:cy="91.275661"
     inkscape:window-width="1398"
     inkscape:pageopacity="0.0"
     inkscape:document-units="px"
     fit-margin-top="0"
     fit-margin-left="0"
     fit-margin-right="0"
     fit-margin-bottom="0"
     units="cm"
     inkscape:snap-text-baseline="true" />
  <g
     id="layer1"
     inkscape:label="Layer 1"
     inkscape:groupmode="layer"
     transform="translate(1799.635,27.793176)">
    <text
       xml:space="preserve"
       style="font-style:normal;font-weight:normal;line-height:0%;font-family:sans-serif;letter-spacing:0px;word-spacing:0px;fill:#000000;fill-opacity:1;stroke:none;stroke-width:1px;stroke-linecap:butt;stroke-linejoin:miter;stroke-opacity:1"
       x="-1128.9001"
       y="-11.74138"
       id="text5476"
       sodipodi:linespacing="0%"><tspan
         sodipodi:role="line"
         id="tspan5478"
         x="-1128.9001"
         y="-11.74138"
         style="font-size:40px;line-height:1.25"> </tspan></text>
    <g
       transform="matrix(0.72484839,1.2953625,-1.2953626,0.72484843,-671.26984,-964.12141)"
       id="g4147"
       style="fill:#004878;fill-opacity:1" />
    <path
       sodipodi:type="star"
       style="fill:#0b5394;fill-opacity:1;stroke:#dadada;stroke-width:17.71653557;stroke-miterlimit:4;stroke-dasharray:none;stroke-opacity:1"
       id="path2709"
       sodipodi:sides="6"
       sodipodi:cx="-1792.8229"
       sodipodi:cy="-11.263947"
       sodipodi:r1="198.17847"
       sodipodi:r2="99.089233"
       sodipodi:arg1="0.77809902"
       sodipodi:arg2="1.3016978"
       inkscape:flatsided="true"
       inkscape:rounded="0"
       inkscape:randomized="0"
       d="m -1651.6704,127.84281 -191.0462,52.68823 -141.1525,-139.10676 49.8938,-191.79499 191.0462,-52.68822 141.1524,139.106757 z"
       transform="matrix(0.4851164,-0.12564687,0.12557485,0.48539461,-837.98745,-143.09449)" />
    <path
       id="path5440"
       d="m -1795.38,8.523346 178.1669,0 0,133.625164 -178.1669,0 z"
       inkscape:connector-curvature="0"
       style="fill:#000000;fill-opacity:0;fill-rule:evenodd;stroke:none;stroke-width:0.16202061;stroke-linecap:square;stroke-miterlimit:10" />
    <path
       id="path5454"
       d="m -1730.6285,60.734262 16.3259,0.347942 -0.2978,14.682983 -16.3258,-0.347938 z"
       inkscape:connector-curvature="0"
       style="fill:#6d9eeb;fill-rule:evenodd;stroke:none;stroke-width:0.16202061;stroke-linecap:square;stroke-miterlimit:10" />
    <path
       id="path5456"
       d="m -1730.6285,60.734262 16.3259,0.347942 -0.2978,14.682983 -16.3258,-0.347938 z"
       inkscape:connector-curvature="0"
       style="fill:none;fill-rule:evenodd;stroke:#ffffff;stroke-width:1.36748481;stroke-linecap:butt;stroke-linejoin:round;stroke-miterlimit:10" />
    <path
       id="path5458"
       d="m -1716.9959,67.798747 16.3259,0.326527 -0.3032,14.704398 -16.3259,-0.326528 z"
       inkscape:connector-curvature="0"
       style="fill:#e69138;fill-rule:evenodd;stroke:none;stroke-width:0.16202061;stroke-linecap:square;stroke-miterlimit:10" />
    <path
       id="path5460"
       d="m -1716.9959,67.798747 16.3259,0.326527 -0.3032,14.704398 -16.3259,-0.326528 z"
       inkscape:connector-curvature="0"
       style="fill:none;fill-rule:evenodd;stroke:#ffffff;stroke-width:1.36748481;stroke-linecap:butt;stroke-linejoin:round;stroke-miterlimit:10" />
    <g
       id="g3462"
       transform="matrix(1.0827955,0,0,1.1204897,140.19777,-19.43769)">
      <path
         style="fill:#000000;fill-opacity:0;fill-rule:evenodd;stroke:none;stroke-width:0.16202061;stroke-linecap:square;stroke-miterlimit:10"
         inkscape:connector-curvature="0"
         d="m -1736.2835,111.5012 70.0184,-25.765104"
         id="path5442" />
      <path
         style="fill:none;fill-rule:evenodd;stroke:#e69138;stroke-width:3.88849473;stroke-linecap:butt;stroke-linejoin:round;stroke-miterlimit:10"
         inkscape:connector-curvature="0"
         d="m -1736.2835,111.5012 70.0184,-25.765104"
         id="path5444" />
      <path
         style="fill:#000000;fill-opacity:0;fill-rule:evenodd;stroke:none;stroke-width:0.16202061;stroke-linecap:square;stroke-miterlimit:10"
         inkscape:connector-curvature="0"
         d="m -1734.4699,114.54873 69.8602,-25.550782"
         id="path5466" />
      <path
         style="fill:none;fill-rule:evenodd;stroke:#e69138;stroke-width:3.88849473;stroke-linecap:butt;stroke-linejoin:round;stroke-miterlimit:10"
         inkscape:connector-curvature="0"
         d="m -1734.4699,114.54873 69.8602,-25.550782"
         id="path5468" />
    </g>
    <g
       id="g3474"
       transform="matrix(1.0914628,0,0,1.0690576,154.24018,-14.697615)">
      <path
         style="fill:#000000;fill-opacity:0;fill-rule:evenodd;stroke:none;stroke-width:0.16202061;stroke-linecap:square;stroke-miterlimit:10"
         inkscape:connector-curvature="0"
         d="m -1725.1754,35.492876 59.6797,42.901016"
         id="path5446" />
      <path
         style="fill:none;fill-rule:evenodd;stroke:#93c47d;stroke-width:3.88849473;stroke-linecap:butt;stroke-linejoin:round;stroke-miterlimit:10;stroke-opacity:1"
         inkscape:connector-curvature="0"
         d="m -1725.1754,35.492876 59.6797,42.901016"
         id="path5448" />
      <path
         style="fill:#93c47d;fill-rule:evenodd;stroke:none;stroke-width:0.16202061;stroke-linecap:square;stroke-miterlimit:10"
         inkscape:connector-curvature="0"
         d="m -1716.6385,63.042911 15.3856,0.311283 -0.2858,14.017973 -15.3856,-0.311285 z"
         id="path5450" />
      <path
         style="fill:none;fill-rule:evenodd;stroke:#ffffff;stroke-width:1.29616487;stroke-linecap:butt;stroke-linejoin:round;stroke-miterlimit:10"
         inkscape:connector-curvature="0"
         d="m -1716.6385,63.042911 15.3856,0.311283 -0.2858,14.017973 -15.3856,-0.311285 z"
         id="path5452" />
      <path
         style="fill:#000000;fill-opacity:0;fill-rule:evenodd;stroke:none;stroke-width:0.16202061;stroke-linecap:square;stroke-miterlimit:10"
         inkscape:connector-curvature="0"
         d="m -1721.9066,33.831876 59.6746,42.901013"
         id="path5470" />
      <path
         style="fill:none;fill-rule:evenodd;stroke:#93c47d;stroke-width:3.88849473;stroke-linecap:butt;stroke-linejoin:round;stroke-miterlimit:10;stroke-opacity:1"
         inkscape:connector-curvature="0"
         d="m -1721.9066,33.831876 59.6746,42.901013"
         id="path5472" />
    </g>
    <path
       id="path5474"
       d="m -1659.1536,61.802623 0,0 c 6.0395,-2.370969 12.9513,0.521694 15.4379,6.460942 l 0,0 c 1.1942,2.852127 1.1873,6.039736 -0.02,8.861592 -1.2063,2.82186 -3.5134,5.046805 -6.4137,6.185389 l 0,0 c -6.0394,2.370968 -12.9512,-0.521694 -15.4378,-6.460942 l 0,0 c -2.4867,-5.939249 0.3935,-12.676013 6.4328,-15.046981 z"
       inkscape:connector-curvature="0"
       style="fill:#6d9eeb;fill-opacity:1;fill-rule:evenodd;stroke:none;stroke-width:0.16202061;stroke-linecap:square;stroke-miterlimit:10" />
    <path
       id="path5476"
       d="m -1659.1536,61.802623 0,0 c 6.0395,-2.370969 12.9513,0.521694 15.4379,6.460942 l 0,0 c 1.1942,2.852127 1.1873,6.039736 -0.02,8.861592 -1.2063,2.82186 -3.5134,5.046805 -6.4137,6.185389 l 0,0 c -6.0394,2.370968 -12.9512,-0.521694 -15.4378,-6.460942 l 0,0 c -2.4867,-5.939249 0.3935,-12.676013 6.4328,-15.046981 z"
       inkscape:connector-curvature="0"
       style="fill:none;fill-rule:evenodd;stroke:#ffffff;stroke-width:2.05122733;stroke-linecap:butt;stroke-linejoin:round;stroke-miterlimit:10" />
    <g
       id="g3468"
       transform="matrix(1.3095769,-0.10528974,0.08578484,1.0426884,526.10384,-195.43736)">
      <path
         style="fill:#000000;fill-opacity:0;fill-rule:evenodd;stroke:none;stroke-width:0.16202061;stroke-linecap:square;stroke-miterlimit:10"
         inkscape:connector-curvature="0"
         d="m -1743.8769,105.47547 12.778,-67.125004"
         id="path5462" />
      <path
         style="fill:none;fill-rule:evenodd;stroke:#6d9eeb;stroke-width:3.88849473;stroke-linecap:butt;stroke-linejoin:round;stroke-miterlimit:10;stroke-opacity:1"
         inkscape:connector-curvature="0"
         d="m -1743.8769,105.47547 12.778,-67.125004"
         id="path5464" />
      <path
         style="fill:#000000;fill-opacity:0;fill-rule:evenodd;stroke:none;stroke-width:0.16202061;stroke-linecap:square;stroke-miterlimit:10"
         inkscape:connector-curvature="0"
         d="m -1741.4783,107.86614 12.8086,-67.278103"
         id="path5478" />
      <path
         style="fill:none;fill-rule:evenodd;stroke:#6d9eeb;stroke-width:3.88849473;stroke-linecap:butt;stroke-linejoin:round;stroke-miterlimit:10;stroke-opacity:1"
         inkscape:connector-curvature="0"
         d="m -1741.4783,107.86614 12.8086,-67.278103"
         id="path5480" />
    </g>
    <path
       id="path5482"
       d="m -1754.81,99.99296 0,0 c 5.1617,-2.95483 11.8443,-1.21613 14.9261,3.88353 l 0,0 c 1.4799,2.44894 1.9145,5.36126 1.2083,8.09628 -0.7064,2.73503 -2.4957,5.06871 -4.9743,6.48768 l 0,0 c -5.1618,2.95483 -11.8444,1.21613 -14.9262,-3.88353 l 0,0 c -3.0818,-5.09965 -1.3957,-11.62911 3.7661,-14.58396 z"
       inkscape:connector-curvature="0"
       style="fill:#93c47d;fill-opacity:1;fill-rule:evenodd;stroke:none;stroke-width:0.16202061;stroke-linecap:square;stroke-miterlimit:10" />
    <path
       id="path5484"
       d="m -1754.81,99.99296 0,0 c 5.1617,-2.95483 11.8443,-1.21613 14.9261,3.88353 l 0,0 c 1.4799,2.44894 1.9145,5.36126 1.2083,8.09628 -0.7064,2.73503 -2.4957,5.06871 -4.9743,6.48768 l 0,0 c -5.1618,2.95483 -11.8444,1.21613 -14.9262,-3.88353 l 0,0 c -3.0818,-5.09965 -1.3957,-11.62911 3.7661,-14.58396 z"
       inkscape:connector-curvature="0"
       style="fill:none;fill-rule:evenodd;stroke:#ffffff;stroke-width:2.05122733;stroke-linecap:butt;stroke-linejoin:round;stroke-miterlimit:10" />
    <path
       id="path5486"
       d="m -1744.5192,17.128482 0,0 c 0.4845,-5.73674 5.8083,-9.9451197 11.8912,-9.3996787 l 0,0 c 2.921,0.261931 5.63,1.607504 7.5311,3.7407117 1.9009,2.133206 2.8381,4.879306 2.6055,7.634185 l 0,0 c -0.4845,5.736742 -5.8083,9.945123 -11.891,9.39968 l 0,0 c -6.0829,-0.545441 -10.6212,-5.638156 -10.1368,-11.374898 z"
       inkscape:connector-curvature="0"
       style="fill:#e69138;fill-rule:evenodd;stroke:none;stroke-width:0.16202061;stroke-linecap:square;stroke-miterlimit:10" />
    <path
       id="path5488"
       d="m -1744.5192,17.128482 0,0 c 0.4845,-5.73674 5.8083,-9.9451197 11.8912,-9.3996787 l 0,0 c 2.921,0.261931 5.63,1.607504 7.5311,3.7407117 1.9009,2.133206 2.8381,4.879306 2.6055,7.634185 l 0,0 c -0.4845,5.736742 -5.8083,9.945123 -11.891,9.39968 l 0,0 c -6.0829,-0.545441 -10.6212,-5.638156 -10.1368,-11.374898 z"
       inkscape:connector-curvature="0"
       style="fill:none;fill-rule:evenodd;stroke:#ffffff;stroke-width:2.05122733;stroke-linecap:butt;stroke-linejoin:round;stroke-miterlimit:10" />
    <text
       xml:space="preserve"
       style="font-style:normal;font-weight:normal;font-size:40px;line-height:125%;font-family:sans-serif;letter-spacing:0px;word-spacing:0px;fill:#000000;fill-opacity:1;stroke:none;stroke-width:1px;stroke-linecap:butt;stroke-linejoin:miter;stroke-opacity:1"
       x="-1964.5581"
       y="5.7797728"
       id="text3515"
       sodipodi:linespacing="125%"><tspan
         sodipodi:role="line"
         id="tspan3517"
         x="-1964.5581"
         y="5.7797728" /></text>
  </g>
  <metadata
     id="metadata207">
    <rdf:RDF>
      <cc:Work>
        <dc:format>image/svg+xml</dc:format>
        <dc:type
           rdf:resource="http://purl.org/dc/dcmitype/StillImage" />
        <cc:license
           rdf:resource="http://creativecommons.org/publicdomain/zero/1.0/" />
        <dc:publisher>
          <cc:Agent
             rdf:about="http://openclipart.org/">
            <dc:title />
          </cc:Agent>
        </dc:publisher>
        <dc:title>OpenPlantPathology</dc:title>
        <dc:date>2018-01-15</dc:date>
        <dc:description>Open Plant Pathology Hex Sticker, http://openplantpathology.netlify.com</dc:description>
        <dc:source>https://openplantpathology.github.io/OpenPlantPathology/public/img/OPP-hex.svg</dc:source>
        <dc:creator>
          <cc:Agent>
            <dc:title>adamhsparks</dc:title>
          </cc:Agent>
        </dc:creator>
        <dc:subject>
          <rdf:Bag>
            <rdf:li>R</rdf:li>
            <rdf:li>hexsticker</rdf:li>
          </rdf:Bag>
        </dc:subject>
        <dc:rights>
          <cc:Agent>
            <dc:title>CC0</dc:title>
          </cc:Agent>
        </dc:rights>
        <dc:contributor>
          <cc:Agent>
            <dc:title />
          </cc:Agent>
        </dc:contributor>
      </cc:Work>
      <cc:License
         rdf:about="http://creativecommons.org/publicdomain/zero/1.0/">
        <cc:permits
           rdf:resource="http://creativecommons.org/ns#Reproduction" />
        <cc:permits
           rdf:resource="http://creativecommons.org/ns#Distribution" />
        <cc:permits
           rdf:resource="http://creativecommons.org/ns#DerivativeWorks" />
      </cc:License>
    </rdf:RDF>
  </metadata>
</svg>
