<?xml version="1.0" encoding="UTF-8" standalone="no"?>
<!-- Created with Inkscape (http://www.inkscape.org/) -->

<svg
   xmlns:dc="http://purl.org/dc/elements/1.1/"
   xmlns:cc="http://creativecommons.org/ns#"
   xmlns:rdf="http://www.w3.org/1999/02/22-rdf-syntax-ns#"
   xmlns:svg="http://www.w3.org/2000/svg"
   xmlns="http://www.w3.org/2000/svg"
   xmlns:sodipodi="http://sodipodi.sourceforge.net/DTD/sodipodi-0.dtd"
   xmlns:inkscape="http://www.inkscape.org/namespaces/inkscape"
   id="svg2"
   sodipodi:docname="OPP-hex.svg"
   viewBox="0 0 182.42194 208.98762"
   version="1.1"
   inkscape:version="0.91 r13725"
   width="5.1483526cm"
   height="5.8980956cm"
   inkscape:export-filename="/Users/adamsparks/Development/GSODR/man/figures/GSODR-hex.png"
   inkscape:export-xdpi="144.5"
   inkscape:export-ydpi="144.5">
  <title
     id="title6318">OpenPlantPathology</title>
  <defs
     id="defs4">
    <style
       id="style22186">.cls-1{fill:none;}.cls-2{fill:#ba6f38;}.cls-3{clip-path:url(#clip-path);}.cls-4{fill:#ed7d15;}.cls-5{opacity:0.25;fill:url(#linear-gradient);}.cls-6{fill:#ac5d12;}.cls-7{clip-path:url(#clip-path-2);}.cls-8{fill:#36a85d;}.cls-9{fill:#e6b35a;}.cls-10{fill:#fff;}.cls-11{opacity:0.94;}</style>
  </defs>
  <sodipodi:namedview
     id="base"
     bordercolor="#666666"
     inkscape:pageshadow="2"
     inkscape:window-y="0"
     pagecolor="#ffffff"
     inkscape:window-height="1032"
     inkscape:window-maximized="1"
     inkscape:zoom="1.4142136"
     inkscape:window-x="0"
     showgrid="false"
     borderopacity="1.0"
     inkscape:current-layer="layer1"
     inkscape:cx="1.1991286"
     inkscape:cy="68.441972"
     inkscape:window-width="1920"
     inkscape:pageopacity="0.0"
     inkscape:document-units="px"
     fit-margin-top="0"
     fit-margin-left="0"
     fit-margin-right="0"
     fit-margin-bottom="0"
     units="cm" />
  <g
     id="layer1"
     inkscape:label="Layer 1"
     inkscape:groupmode="layer"
     transform="translate(1799.635,27.793176)">
    <text
       xml:space="preserve"
       style="font-style:normal;font-weight:normal;line-height:0%;font-family:sans-serif;letter-spacing:0px;word-spacing:0px;fill:#000000;fill-opacity:1;stroke:none;stroke-width:1px;stroke-linecap:butt;stroke-linejoin:miter;stroke-opacity:1"
       x="-1128.9001"
       y="-11.74138"
       id="text5476"
       sodipodi:linespacing="0%"><tspan
         sodipodi:role="line"
         id="tspan5478"
         x="-1128.9001"
         y="-11.74138"
         style="font-size:40px;line-height:1.25"> </tspan></text>
    <g
       transform="matrix(0.72484839,1.2953625,-1.2953626,0.72484843,-671.26984,-964.12141)"
       id="g4147"
       style="fill:#004878;fill-opacity:1" />
    <g
       id="g3471"
       inkscape:export-xdpi="89.791824"
       inkscape:export-ydpi="89.791824">
      <path
         transform="matrix(0.4851164,-0.12564687,0.12557485,0.48539461,-837.98745,-143.09449)"
         d="m -1651.6704,127.84281 -191.0462,52.68823 -141.1525,-139.10676 49.8938,-191.79499 191.0462,-52.68822 141.1524,139.106757 z"
         inkscape:randomized="0"
         inkscape:rounded="0"
         inkscape:flatsided="true"
         sodipodi:arg2="1.3016978"
         sodipodi:arg1="0.77809902"
         sodipodi:r2="99.089233"
         sodipodi:r1="198.17847"
         sodipodi:cy="-11.263947"
         sodipodi:cx="-1792.8229"
         sodipodi:sides="6"
         id="path2709"
         style="fill:#0b5394;fill-opacity:1;stroke:#dadada;stroke-width:17.71653557;stroke-miterlimit:4;stroke-dasharray:none;stroke-opacity:1"
         sodipodi:type="star" />
      <path
         style="fill:#000000;fill-opacity:0;fill-rule:evenodd;stroke:none;stroke-width:0.16202061;stroke-linecap:square;stroke-miterlimit:10"
         inkscape:connector-curvature="0"
         d="m -1795.38,8.523346 178.1669,0 0,133.625164 -178.1669,0 z"
         id="path5440" />
      <path
         style="fill:#6d9eeb;fill-rule:evenodd;stroke:none;stroke-width:0.16202061;stroke-linecap:square;stroke-miterlimit:10"
         inkscape:connector-curvature="0"
         d="m -1739.1968,65.703155 17.6238,0.379954 -0.3215,16.033846 -17.6237,-0.379948 z"
         id="path5454" />
      <path
         style="fill:none;fill-rule:evenodd;stroke:#ffffff;stroke-width:1.48472393;stroke-linecap:butt;stroke-linejoin:round;stroke-miterlimit:10"
         inkscape:connector-curvature="0"
         d="m -1739.1968,65.703155 17.6238,0.379954 -0.3215,16.033846 -17.6237,-0.379948 z"
         id="path5456" />
      <path
         style="fill:#e69138;fill-rule:evenodd;stroke:none;stroke-width:0.16202061;stroke-linecap:square;stroke-miterlimit:10"
         inkscape:connector-curvature="0"
         d="m -1724.4804,73.417587 17.6238,0.356568 -0.3273,16.057232 -17.6238,-0.356569 z"
         id="path5458" />
      <path
         style="fill:none;fill-rule:evenodd;stroke:#ffffff;stroke-width:1.48472393;stroke-linecap:butt;stroke-linejoin:round;stroke-miterlimit:10"
         inkscape:connector-curvature="0"
         d="m -1724.4804,73.417587 17.6238,0.356568 -0.3273,16.057232 -17.6238,-0.356569 z"
         id="path5460" />
      <g
         transform="matrix(1.1454746,0,0,1.1454746,239.68053,-14.907242)"
         id="g3462">
        <path
           id="path5442"
           d="m -1736.2835,111.5012 70.0184,-25.765104"
           inkscape:connector-curvature="0"
           style="fill:#000000;fill-opacity:0;fill-rule:evenodd;stroke:none;stroke-width:0.16202061;stroke-linecap:square;stroke-miterlimit:10" />
        <path
           id="path5444"
           d="m -1736.2835,111.5012 70.0184,-25.765104"
           inkscape:connector-curvature="0"
           style="fill:none;fill-rule:evenodd;stroke:#e69138;stroke-width:3.88849473;stroke-linecap:butt;stroke-linejoin:round;stroke-miterlimit:10" />
        <path
           id="path5466"
           d="m -1734.4699,114.54873 69.8602,-25.550782"
           inkscape:connector-curvature="0"
           style="fill:#000000;fill-opacity:0;fill-rule:evenodd;stroke:none;stroke-width:0.16202061;stroke-linecap:square;stroke-miterlimit:10" />
        <path
           id="path5468"
           d="m -1734.4699,114.54873 69.8602,-25.550782"
           inkscape:connector-curvature="0"
           style="fill:none;fill-rule:evenodd;stroke:#e69138;stroke-width:3.88849473;stroke-linecap:butt;stroke-linejoin:round;stroke-miterlimit:10" />
      </g>
      <g
         transform="matrix(1.1454746,0,0,1.1454746,239.68053,-14.907242)"
         id="g3474">
        <path
           id="path5446"
           d="m -1725.1754,35.492876 59.6797,42.901016"
           inkscape:connector-curvature="0"
           style="fill:#000000;fill-opacity:0;fill-rule:evenodd;stroke:none;stroke-width:0.16202061;stroke-linecap:square;stroke-miterlimit:10" />
        <path
           id="path5448"
           d="m -1725.1754,35.492876 59.6797,42.901016"
           inkscape:connector-curvature="0"
           style="fill:none;fill-rule:evenodd;stroke:#93c47d;stroke-width:3.88849473;stroke-linecap:butt;stroke-linejoin:round;stroke-miterlimit:10;stroke-opacity:1" />
        <path
           id="path5450"
           d="m -1716.6385,63.042911 15.3856,0.311283 -0.2858,14.017973 -15.3856,-0.311285 z"
           inkscape:connector-curvature="0"
           style="fill:#93c47d;fill-rule:evenodd;stroke:none;stroke-width:0.16202061;stroke-linecap:square;stroke-miterlimit:10" />
        <path
           id="path5452"
           d="m -1716.6385,63.042911 15.3856,0.311283 -0.2858,14.017973 -15.3856,-0.311285 z"
           inkscape:connector-curvature="0"
           style="fill:none;fill-rule:evenodd;stroke:#ffffff;stroke-width:1.29616487;stroke-linecap:butt;stroke-linejoin:round;stroke-miterlimit:10" />
        <path
           id="path5470"
           d="m -1721.9066,33.831876 59.6746,42.901013"
           inkscape:connector-curvature="0"
           style="fill:#000000;fill-opacity:0;fill-rule:evenodd;stroke:none;stroke-width:0.16202061;stroke-linecap:square;stroke-miterlimit:10" />
        <path
           id="path5472"
           d="m -1721.9066,33.831876 59.6746,42.901013"
           inkscape:connector-curvature="0"
           style="fill:none;fill-rule:evenodd;stroke:#93c47d;stroke-width:3.88849473;stroke-linecap:butt;stroke-linejoin:round;stroke-miterlimit:10;stroke-opacity:1" />
      </g>
      <path
         style="fill:#6d9eeb;fill-opacity:1;fill-rule:evenodd;stroke:none;stroke-width:0.16202061;stroke-linecap:square;stroke-miterlimit:10"
         inkscape:connector-curvature="0"
         d="m -1662.0396,66.869807 0,0 c 6.5196,-2.589102 13.9809,0.569691 16.6652,7.055362 l 0,0 c 1.2891,3.114529 1.2817,6.595404 -0.021,9.676877 -1.3023,3.081476 -3.7928,5.511121 -6.9236,6.754457 l 0,0 c -6.5196,2.589102 -13.9809,-0.569691 -16.6652,-7.055362 l 0,0 c -2.6844,-6.485672 0.4248,-13.842232 6.9442,-16.431334 z"
         id="path5474" />
      <path
         style="fill:none;fill-rule:evenodd;stroke:#ffffff;stroke-width:2.22708607;stroke-linecap:butt;stroke-linejoin:round;stroke-miterlimit:10"
         inkscape:connector-curvature="0"
         d="m -1662.0396,66.869807 0,0 c 6.5196,-2.589102 13.9809,0.569691 16.6652,7.055362 l 0,0 c 1.2891,3.114529 1.2817,6.595404 -0.021,9.676877 -1.3023,3.081476 -3.7928,5.511121 -6.9236,6.754457 l 0,0 c -6.5196,2.589102 -13.9809,-0.569691 -16.6652,-7.055362 l 0,0 c -2.6844,-6.485672 0.4248,-13.842232 6.9442,-16.431334 z"
         id="path5476" />
      <g
         transform="matrix(1.1454746,0,0,1.1454746,239.68053,-14.907242)"
         id="g3468">
        <path
           id="path5462"
           d="m -1743.8769,105.47547 12.778,-67.125004"
           inkscape:connector-curvature="0"
           style="fill:#000000;fill-opacity:0;fill-rule:evenodd;stroke:none;stroke-width:0.16202061;stroke-linecap:square;stroke-miterlimit:10" />
        <path
           id="path5464"
           d="m -1743.8769,105.47547 12.778,-67.125004"
           inkscape:connector-curvature="0"
           style="fill:none;fill-rule:evenodd;stroke:#6d9eeb;stroke-width:3.88849473;stroke-linecap:butt;stroke-linejoin:round;stroke-miterlimit:10;stroke-opacity:1" />
        <path
           id="path5478"
           d="m -1741.4783,107.86614 12.8086,-67.278103"
           inkscape:connector-curvature="0"
           style="fill:#000000;fill-opacity:0;fill-rule:evenodd;stroke:none;stroke-width:0.16202061;stroke-linecap:square;stroke-miterlimit:10" />
        <path
           id="path5480"
           d="m -1741.4783,107.86614 12.8086,-67.278103"
           inkscape:connector-curvature="0"
           style="fill:none;fill-rule:evenodd;stroke:#6d9eeb;stroke-width:3.88849473;stroke-linecap:butt;stroke-linejoin:round;stroke-miterlimit:10;stroke-opacity:1" />
      </g>
      <path
         style="fill:#93c47d;fill-opacity:1;fill-rule:evenodd;stroke:none;stroke-width:0.16202061;stroke-linecap:square;stroke-miterlimit:10"
         inkscape:connector-curvature="0"
         d="m -1765.3008,108.57373 0,0 c 5.5721,-3.22668 12.7859,-1.32801 16.1127,4.24082 l 0,0 c 1.5976,2.67425 2.0668,5.85451 1.3044,8.84116 -0.7625,2.98666 -2.6941,5.53504 -5.3698,7.08456 l 0,0 c -5.5721,3.22668 -12.786,1.32801 -16.1128,-4.24082 l 0,0 c -3.3268,-5.56883 -1.5066,-12.69902 4.0655,-15.92572 z"
         id="path5482" />
      <path
         style="fill:none;fill-rule:evenodd;stroke:#ffffff;stroke-width:2.22708607;stroke-linecap:butt;stroke-linejoin:round;stroke-miterlimit:10"
         inkscape:connector-curvature="0"
         d="m -1765.3008,108.57373 0,0 c 5.5721,-3.22668 12.7859,-1.32801 16.1127,4.24082 l 0,0 c 1.5976,2.67425 2.0668,5.85451 1.3044,8.84116 -0.7625,2.98666 -2.6941,5.53504 -5.3698,7.08456 l 0,0 c -5.5721,3.22668 -12.786,1.32801 -16.1128,-4.24082 l 0,0 c -3.3268,-5.56883 -1.5066,-12.69902 4.0655,-15.92572 z"
         id="path5484" />
      <path
         style="fill:#e69138;fill-rule:evenodd;stroke:none;stroke-width:0.16202061;stroke-linecap:square;stroke-miterlimit:10"
         inkscape:connector-curvature="0"
         d="m -1754.1919,18.085556 0,0 c 0.5231,-6.264532 6.2701,-10.8600912 12.8366,-10.2644684 l 0,0 c 3.1532,0.2860284 6.0776,1.7553974 8.1298,4.0848644 2.0521,2.329466 3.0638,5.328212 2.8127,8.336546 l 0,0 c -0.5231,6.264533 -6.2701,10.860094 -12.8364,10.264469 l 0,0 c -6.5665,-0.595622 -11.4656,-6.156878 -10.9427,-12.421411 z"
         id="path5486" />
      <path
         style="fill:none;fill-rule:evenodd;stroke:#ffffff;stroke-width:2.22708607;stroke-linecap:butt;stroke-linejoin:round;stroke-miterlimit:10"
         inkscape:connector-curvature="0"
         d="m -1754.1919,18.085556 0,0 c 0.5231,-6.264532 6.2701,-10.8600912 12.8366,-10.2644684 l 0,0 c 3.1532,0.2860284 6.0776,1.7553974 8.1298,4.0848644 2.0521,2.329466 3.0638,5.328212 2.8127,8.336546 l 0,0 c -0.5231,6.264533 -6.2701,10.860094 -12.8364,10.264469 l 0,0 c -6.5665,-0.595622 -11.4656,-6.156878 -10.9427,-12.421411 z"
         id="path5488" />
      <text
         transform="matrix(0.86382119,-0.50379852,0.50379852,0.86382119,0,0)"
         sodipodi:linespacing="125%"
         id="text3482"
         y="-740.33246"
         x="-1576.0547"
         style="font-style:normal;font-weight:normal;font-size:11.45474625px;line-height:125%;font-family:sans-serif;letter-spacing:0px;word-spacing:0px;fill:#000000;fill-opacity:1;stroke:none;stroke-width:1px;stroke-linecap:butt;stroke-linejoin:miter;stroke-opacity:1"
         xml:space="preserve"><tspan
           style="font-style:normal;font-variant:normal;font-weight:900;font-stretch:normal;font-size:12.88658905px;font-family:Roboto;-inkscape-font-specification:'Roboto Heavy';fill:#ffffff"
           y="-740.33246"
           x="-1576.0547"
           id="tspan3484"
           sodipodi:role="line">open plant pathology</tspan></text>
    </g>
    <text
       xml:space="preserve"
       style="font-style:normal;font-weight:normal;font-size:40px;line-height:125%;font-family:sans-serif;letter-spacing:0px;word-spacing:0px;fill:#000000;fill-opacity:1;stroke:none;stroke-width:1px;stroke-linecap:butt;stroke-linejoin:miter;stroke-opacity:1"
       x="-1964.5581"
       y="5.7797728"
       id="text3515"
       sodipodi:linespacing="125%"><tspan
         sodipodi:role="line"
         id="tspan3517"
         x="-1964.5581"
         y="5.7797728" /></text>
  </g>
  <metadata
     id="metadata207">
    <rdf:RDF>
      <cc:Work>
        <dc:format>image/svg+xml</dc:format>
        <dc:type
           rdf:resource="http://purl.org/dc/dcmitype/StillImage" />
        <cc:license
           rdf:resource="http://creativecommons.org/publicdomain/zero/1.0/" />
        <dc:publisher>
          <cc:Agent
             rdf:about="http://openclipart.org/">
            <dc:title />
          </cc:Agent>
        </dc:publisher>
        <dc:title>OpenPlantPathology</dc:title>
        <dc:date>2018-01-15</dc:date>
        <dc:description>Open Plant Pathology Hex Sticker, http://openplantpathology.netlify.com</dc:description>
        <dc:source>https://openplantpathology.github.io/OpenPlantPathology/public/img/OPP-hex.svg</dc:source>
        <dc:creator>
          <cc:Agent>
            <dc:title>adamhsparks</dc:title>
          </cc:Agent>
        </dc:creator>
        <dc:subject>
          <rdf:Bag>
            <rdf:li>R</rdf:li>
            <rdf:li>hexsticker</rdf:li>
          </rdf:Bag>
        </dc:subject>
        <dc:rights>
          <cc:Agent>
            <dc:title>CC0</dc:title>
          </cc:Agent>
        </dc:rights>
        <dc:contributor>
          <cc:Agent>
            <dc:title />
          </cc:Agent>
        </dc:contributor>
      </cc:Work>
      <cc:License
         rdf:about="http://creativecommons.org/publicdomain/zero/1.0/">
        <cc:permits
           rdf:resource="http://creativecommons.org/ns#Reproduction" />
        <cc:permits
           rdf:resource="http://creativecommons.org/ns#Distribution" />
        <cc:permits
           rdf:resource="http://creativecommons.org/ns#DerivativeWorks" />
      </cc:License>
    </rdf:RDF>
  </metadata>
</svg>
